<?xml version="1.0" standalone="no"?>
<!DOCTYPE svg PUBLIC "-//W3C//DTD SVG 20010904//EN"
 "http://www.w3.org/TR/2001/REC-SVG-20010904/DTD/svg10.dtd">
<svg version="1.0" xmlns="http://www.w3.org/2000/svg"
 width="73.000000pt" height="73.000000pt" viewBox="0 0 73.000000 73.000000"
 preserveAspectRatio="xMidYMid meet">
<metadata>
Created by potrace 1.11, written by Peter Selinger 2001-2013
</metadata>
<g transform="translate(0.000000,73.000000) scale(0.100000,-0.100000)"
fill="#000000" stroke="none">
<path d="M357 683 c-4 -3 -4 -24 -1 -47 3 -22 -1 -75 -10 -116 -9 -41 -16 -90
-16 -107 0 -23 -5 -33 -15 -33 -12 0 -15 -14 -15 -70 0 -40 -4 -70 -10 -70 -5
0 -10 8 -11 18 0 13 -2 12 -9 -6 -5 -12 -15 -25 -22 -27 -10 -4 -12 -28 -9
-90 3 -73 1 -85 -13 -85 -9 0 -16 7 -16 15 0 8 -7 15 -15 15 -8 0 -15 -7 -15
-15 0 -12 -14 -15 -65 -15 -63 0 -65 -1 -65 -25 l0 -25 315 0 315 0 0 25 c0
24 -2 25 -65 25 -49 0 -65 3 -65 14 0 8 -7 16 -15 20 -10 4 -15 -1 -15 -14 0
-12 -7 -20 -16 -20 -14 0 -16 12 -13 85 3 62 1 86 -9 90 -7 2 -17 15 -22 27
-7 18 -9 19 -9 6 -1 -10 -5 -18 -11 -18 -6 0 -10 30 -10 70 0 56 -3 70 -15 70
-10 0 -15 10 -15 33 0 17 -7 66 -16 107 -9 41 -13 94 -10 117 5 39 -3 61 -17
46z"/>
</g>
</svg>
